<mxfile host="app.diagrams.net" modified="2023-05-27T17:06:51.764Z" agent="Mozilla/5.0 (Macintosh; Intel Mac OS X 10_15_7) AppleWebKit/605.1.15 (KHTML, like Gecko) Version/16.4 Safari/605.1.15" etag="BSjGWXh7rYykZC8H6vKV" version="21.3.4" type="github">
  <diagram name="페이지-1" id="D8E8UErY1qM5bL83DhNC">
    <mxGraphModel dx="954" dy="647" grid="1" gridSize="10" guides="1" tooltips="1" connect="1" arrows="1" fold="1" page="1" pageScale="1" pageWidth="827" pageHeight="1169" math="0" shadow="0">
      <root>
        <mxCell id="0" />
        <mxCell id="1" parent="0" />
        <mxCell id="hNnRLSEYX066FxZhfKKF-3" style="edgeStyle=orthogonalEdgeStyle;rounded=0;orthogonalLoop=1;jettySize=auto;html=1;exitX=0.5;exitY=1;exitDx=0;exitDy=0;" edge="1" parent="1" source="hNnRLSEYX066FxZhfKKF-1" target="hNnRLSEYX066FxZhfKKF-4">
          <mxGeometry relative="1" as="geometry">
            <mxPoint x="215" y="210" as="targetPoint" />
          </mxGeometry>
        </mxCell>
        <mxCell id="hNnRLSEYX066FxZhfKKF-1" value="&lt;div style=&quot;font-style: normal; font-variant-caps: normal; font-weight: normal; letter-spacing: normal; text-align: start; text-indent: 0px; text-transform: none; word-spacing: 0px; -webkit-text-stroke-width: 0px; text-decoration: none; color: rgb(212, 212, 212); background-color: rgb(30, 30, 30); font-family: Menlo, Monaco, &amp;quot;Courier New&amp;quot;, monospace; font-size: 12px; line-height: 18px;&quot;&gt;&lt;div&gt;&lt;span style=&quot;color: rgb(86, 156, 214);&quot;&gt;def&lt;/span&gt;&lt;span style=&quot;color: rgb(212, 212, 212);&quot;&gt; &lt;/span&gt;&lt;span style=&quot;color: rgb(220, 220, 170);&quot;&gt;mergeSort&lt;/span&gt;&lt;span style=&quot;color: rgb(212, 212, 212);&quot;&gt;(&lt;/span&gt;&lt;span style=&quot;color: rgb(156, 220, 254);&quot;&gt;A&lt;/span&gt;&lt;span style=&quot;color: rgb(212, 212, 212);&quot;&gt;, &lt;/span&gt;&lt;span style=&quot;color: rgb(156, 220, 254);&quot;&gt;p&lt;/span&gt;&lt;span style=&quot;color: rgb(212, 212, 212);&quot;&gt;:&lt;/span&gt;&lt;span style=&quot;color: rgb(78, 201, 176);&quot;&gt;int&lt;/span&gt;&lt;span style=&quot;color: rgb(212, 212, 212);&quot;&gt;, &lt;/span&gt;&lt;span style=&quot;color: rgb(156, 220, 254);&quot;&gt;r&lt;/span&gt;&lt;span style=&quot;color: rgb(212, 212, 212);&quot;&gt;:&lt;/span&gt;&lt;span style=&quot;color: rgb(78, 201, 176);&quot;&gt;int&lt;/span&gt;&lt;span style=&quot;color: rgb(212, 212, 212);&quot;&gt;):&lt;/span&gt;&lt;/div&gt;&lt;/div&gt;" style="rounded=1;whiteSpace=wrap;html=1;" vertex="1" parent="1">
          <mxGeometry x="100" y="120" width="230" height="60" as="geometry" />
        </mxCell>
        <mxCell id="hNnRLSEYX066FxZhfKKF-2" value="mergeSort (A : list, p : int, r : int)" style="text;html=1;strokeColor=none;fillColor=none;align=center;verticalAlign=middle;whiteSpace=wrap;rounded=0;" vertex="1" parent="1">
          <mxGeometry x="105" y="70" width="220" height="30" as="geometry" />
        </mxCell>
        <mxCell id="hNnRLSEYX066FxZhfKKF-6" style="edgeStyle=orthogonalEdgeStyle;rounded=0;orthogonalLoop=1;jettySize=auto;html=1;exitX=0.5;exitY=1;exitDx=0;exitDy=0;" edge="1" parent="1" source="hNnRLSEYX066FxZhfKKF-4">
          <mxGeometry relative="1" as="geometry">
            <mxPoint x="215" y="300" as="targetPoint" />
          </mxGeometry>
        </mxCell>
        <mxCell id="hNnRLSEYX066FxZhfKKF-4" value="&lt;div style=&quot;font-style: normal; font-variant-caps: normal; font-weight: normal; letter-spacing: normal; text-align: start; text-indent: 0px; text-transform: none; word-spacing: 0px; -webkit-text-stroke-width: 0px; text-decoration: none; color: rgb(212, 212, 212); background-color: rgb(30, 30, 30); font-family: Menlo, Monaco, &amp;quot;Courier New&amp;quot;, monospace; font-size: 12px; line-height: 18px;&quot;&gt;&lt;div&gt;&lt;span style=&quot;color: rgb(156, 220, 254);&quot;&gt;p&lt;/span&gt;&lt;span style=&quot;color: rgb(212, 212, 212);&quot;&gt; &amp;lt; &lt;/span&gt;&lt;span style=&quot;color: rgb(156, 220, 254);&quot;&gt;r&lt;/span&gt;&lt;span style=&quot;color: rgb(212, 212, 212);&quot;&gt;:&lt;/span&gt;&lt;/div&gt;&lt;/div&gt;" style="rhombus;whiteSpace=wrap;html=1;" vertex="1" parent="1">
          <mxGeometry x="150" y="210" width="130" height="70" as="geometry" />
        </mxCell>
        <mxCell id="hNnRLSEYX066FxZhfKKF-5" style="edgeStyle=orthogonalEdgeStyle;rounded=0;orthogonalLoop=1;jettySize=auto;html=1;exitX=0.5;exitY=1;exitDx=0;exitDy=0;" edge="1" parent="1" source="hNnRLSEYX066FxZhfKKF-4" target="hNnRLSEYX066FxZhfKKF-4">
          <mxGeometry relative="1" as="geometry" />
        </mxCell>
        <mxCell id="hNnRLSEYX066FxZhfKKF-7" value="&lt;div style=&quot;font-style: normal; font-variant-caps: normal; font-weight: normal; letter-spacing: normal; text-align: start; text-indent: 0px; text-transform: none; word-spacing: 0px; -webkit-text-stroke-width: 0px; text-decoration: none; color: rgb(212, 212, 212); background-color: rgb(30, 30, 30); font-family: Menlo, Monaco, &amp;quot;Courier New&amp;quot;, monospace; font-size: 12px; line-height: 18px;&quot;&gt;&lt;span style=&quot;color: rgb(156, 220, 254);&quot;&gt;q&lt;/span&gt; = (&lt;span style=&quot;color: rgb(156, 220, 254);&quot;&gt;p&lt;/span&gt;+&lt;span style=&quot;color: rgb(156, 220, 254);&quot;&gt;r&lt;/span&gt;)//&lt;span style=&quot;color: rgb(181, 206, 168);&quot;&gt;2&lt;/span&gt;&lt;br&gt;&lt;/div&gt;&lt;div style=&quot;font-style: normal; font-variant-caps: normal; font-weight: normal; letter-spacing: normal; text-align: start; text-indent: 0px; text-transform: none; word-spacing: 0px; -webkit-text-stroke-width: 0px; text-decoration: none; color: rgb(212, 212, 212); background-color: rgb(30, 30, 30); font-family: Menlo, Monaco, &amp;quot;Courier New&amp;quot;, monospace; font-size: 12px; line-height: 18px;&quot;&gt;&lt;div&gt;&lt;div style=&quot;line-height: 18px;&quot;&gt;mergeSort(&lt;span style=&quot;color: rgb(156, 220, 254);&quot;&gt;A&lt;/span&gt;, &lt;span style=&quot;color: rgb(156, 220, 254);&quot;&gt;p&lt;/span&gt;, &lt;span style=&quot;color: rgb(156, 220, 254);&quot;&gt;q&lt;/span&gt;)&lt;/div&gt;&lt;/div&gt;&lt;div style=&quot;line-height: 18px;&quot;&gt;&lt;div style=&quot;line-height: 18px;&quot;&gt;mergeSort(&lt;span style=&quot;color: rgb(156, 220, 254);&quot;&gt;A&lt;/span&gt;, &lt;span style=&quot;color: rgb(156, 220, 254);&quot;&gt;q&lt;/span&gt;+&lt;span style=&quot;color: rgb(181, 206, 168);&quot;&gt;1&lt;/span&gt;, &lt;span style=&quot;color: rgb(156, 220, 254);&quot;&gt;r&lt;/span&gt;)&lt;/div&gt;&lt;div style=&quot;line-height: 18px;&quot;&gt;&lt;div style=&quot;line-height: 18px;&quot;&gt;merge(&lt;span style=&quot;color: rgb(156, 220, 254);&quot;&gt;A&lt;/span&gt;,&lt;span style=&quot;color: rgb(156, 220, 254);&quot;&gt;p&lt;/span&gt;,&lt;span style=&quot;color: rgb(156, 220, 254);&quot;&gt;q&lt;/span&gt;,&lt;span style=&quot;color: rgb(156, 220, 254);&quot;&gt;r&lt;/span&gt;)&lt;/div&gt;&lt;/div&gt;&lt;/div&gt;&lt;/div&gt;" style="rounded=0;whiteSpace=wrap;html=1;" vertex="1" parent="1">
          <mxGeometry x="130" y="300" width="170" height="100" as="geometry" />
        </mxCell>
        <mxCell id="hNnRLSEYX066FxZhfKKF-8" value="" style="strokeWidth=2;html=1;shape=mxgraph.flowchart.annotation_1;align=left;pointerEvents=1;" vertex="1" parent="1">
          <mxGeometry x="40" y="140" width="50" height="250" as="geometry" />
        </mxCell>
        <mxCell id="hNnRLSEYX066FxZhfKKF-11" style="edgeStyle=orthogonalEdgeStyle;rounded=0;orthogonalLoop=1;jettySize=auto;html=1;exitX=0.5;exitY=1;exitDx=0;exitDy=0;" edge="1" parent="1" source="hNnRLSEYX066FxZhfKKF-9">
          <mxGeometry relative="1" as="geometry">
            <mxPoint x="575" y="210" as="targetPoint" />
          </mxGeometry>
        </mxCell>
        <mxCell id="hNnRLSEYX066FxZhfKKF-9" value="&lt;div style=&quot;font-style: normal; font-variant-caps: normal; font-weight: normal; letter-spacing: normal; text-align: start; text-indent: 0px; text-transform: none; word-spacing: 0px; -webkit-text-stroke-width: 0px; text-decoration: none; color: rgb(212, 212, 212); background-color: rgb(30, 30, 30); font-family: Menlo, Monaco, &amp;quot;Courier New&amp;quot;, monospace; font-size: 12px; line-height: 18px;&quot;&gt;&lt;div&gt;&lt;span style=&quot;color: rgb(86, 156, 214);&quot;&gt;def&lt;/span&gt;&lt;span style=&quot;color: rgb(212, 212, 212);&quot;&gt; &lt;/span&gt;&lt;span style=&quot;color: rgb(220, 220, 170);&quot;&gt;merge&lt;/span&gt;&lt;span style=&quot;color: rgb(212, 212, 212);&quot;&gt;(&lt;/span&gt;&lt;span style=&quot;color: rgb(156, 220, 254);&quot;&gt;A&lt;/span&gt;&lt;span style=&quot;color: rgb(212, 212, 212);&quot;&gt;, &lt;/span&gt;&lt;span style=&quot;color: rgb(156, 220, 254);&quot;&gt;p&lt;/span&gt;&lt;span style=&quot;color: rgb(212, 212, 212);&quot;&gt;:&lt;/span&gt;&lt;span style=&quot;color: rgb(78, 201, 176);&quot;&gt;int&lt;/span&gt;&lt;span style=&quot;color: rgb(212, 212, 212);&quot;&gt;, &lt;/span&gt;&lt;span style=&quot;color: rgb(156, 220, 254);&quot;&gt;q&lt;/span&gt;&lt;span style=&quot;color: rgb(212, 212, 212);&quot;&gt;:&lt;/span&gt;&lt;span style=&quot;color: rgb(78, 201, 176);&quot;&gt;int&lt;/span&gt;&lt;span style=&quot;color: rgb(212, 212, 212);&quot;&gt;, &lt;/span&gt;&lt;span style=&quot;color: rgb(156, 220, 254);&quot;&gt;r&lt;/span&gt;&lt;span style=&quot;color: rgb(212, 212, 212);&quot;&gt;:&lt;/span&gt;&lt;span style=&quot;color: rgb(78, 201, 176);&quot;&gt;int&lt;/span&gt;&lt;span style=&quot;color: rgb(212, 212, 212);&quot;&gt;):&lt;/span&gt;&lt;/div&gt;&lt;/div&gt;" style="rounded=1;whiteSpace=wrap;html=1;" vertex="1" parent="1">
          <mxGeometry x="440" y="120" width="270" height="60" as="geometry" />
        </mxCell>
        <mxCell id="hNnRLSEYX066FxZhfKKF-10" value="merge (A: list, p: int, q: int, r: int)" style="text;html=1;strokeColor=none;fillColor=none;align=center;verticalAlign=middle;whiteSpace=wrap;rounded=0;" vertex="1" parent="1">
          <mxGeometry x="465" y="70" width="220" height="30" as="geometry" />
        </mxCell>
        <mxCell id="hNnRLSEYX066FxZhfKKF-13" style="edgeStyle=orthogonalEdgeStyle;rounded=0;orthogonalLoop=1;jettySize=auto;html=1;exitX=0.5;exitY=1;exitDx=0;exitDy=0;" edge="1" parent="1" source="hNnRLSEYX066FxZhfKKF-12">
          <mxGeometry relative="1" as="geometry">
            <mxPoint x="575" y="310" as="targetPoint" />
          </mxGeometry>
        </mxCell>
        <mxCell id="hNnRLSEYX066FxZhfKKF-12" value="&lt;div style=&quot;font-style: normal; font-variant-caps: normal; font-weight: normal; letter-spacing: normal; text-align: start; text-indent: 0px; text-transform: none; word-spacing: 0px; -webkit-text-stroke-width: 0px; text-decoration: none; color: rgb(212, 212, 212); background-color: rgb(30, 30, 30); font-family: Menlo, Monaco, &amp;quot;Courier New&amp;quot;, monospace; font-size: 12px; line-height: 18px;&quot;&gt;&lt;div&gt;&lt;span style=&quot;color: rgb(156, 220, 254);&quot;&gt;tmp&lt;/span&gt;&lt;span style=&quot;color: rgb(212, 212, 212);&quot;&gt; = []&lt;/span&gt;&lt;/div&gt;&lt;div&gt;&lt;div style=&quot;line-height: 18px;&quot;&gt;i = &lt;span style=&quot;color: rgb(156, 220, 254);&quot;&gt;p&lt;/span&gt;&lt;/div&gt;&lt;/div&gt;&lt;div style=&quot;line-height: 18px;&quot;&gt;&lt;div style=&quot;line-height: 18px;&quot;&gt;j = &lt;span style=&quot;color: rgb(156, 220, 254);&quot;&gt;q&lt;/span&gt;+&lt;span style=&quot;color: rgb(181, 206, 168);&quot;&gt;1&lt;/span&gt;&lt;/div&gt;&lt;/div&gt;&lt;/div&gt;" style="shape=hexagon;perimeter=hexagonPerimeter2;whiteSpace=wrap;html=1;fixedSize=1;" vertex="1" parent="1">
          <mxGeometry x="490" y="210" width="170" height="70" as="geometry" />
        </mxCell>
        <mxCell id="hNnRLSEYX066FxZhfKKF-30" style="edgeStyle=orthogonalEdgeStyle;rounded=0;orthogonalLoop=1;jettySize=auto;html=1;exitX=0.5;exitY=1;exitDx=0;exitDy=0;" edge="1" parent="1" source="hNnRLSEYX066FxZhfKKF-14">
          <mxGeometry relative="1" as="geometry">
            <mxPoint x="575" y="600" as="targetPoint" />
          </mxGeometry>
        </mxCell>
        <mxCell id="hNnRLSEYX066FxZhfKKF-14" value="&lt;div style=&quot;font-weight: normal; text-align: start; color: rgb(212, 212, 212); background-color: rgb(30, 30, 30); font-family: Menlo, Monaco, &amp;quot;Courier New&amp;quot;, monospace; line-height: 18px;&quot;&gt;i &amp;lt;= &lt;span style=&quot;color: rgb(156, 220, 254);&quot;&gt;q&lt;/span&gt; &lt;span style=&quot;color: rgb(86, 156, 214);&quot;&gt;and&lt;/span&gt; &lt;span style=&quot;color: rgb(156, 220, 254);&quot;&gt;j&lt;/span&gt; &amp;lt;= &lt;span style=&quot;color: rgb(156, 220, 254);&quot;&gt;r&lt;/span&gt;:&lt;/div&gt;" style="swimlane;whiteSpace=wrap;html=1;" vertex="1" parent="1">
          <mxGeometry x="400" y="320" width="350" height="240" as="geometry" />
        </mxCell>
        <mxCell id="hNnRLSEYX066FxZhfKKF-17" style="edgeStyle=orthogonalEdgeStyle;rounded=0;orthogonalLoop=1;jettySize=auto;html=1;exitX=1;exitY=0.5;exitDx=0;exitDy=0;" edge="1" parent="hNnRLSEYX066FxZhfKKF-14" source="hNnRLSEYX066FxZhfKKF-15">
          <mxGeometry relative="1" as="geometry">
            <mxPoint x="210" y="80" as="targetPoint" />
          </mxGeometry>
        </mxCell>
        <mxCell id="hNnRLSEYX066FxZhfKKF-23" style="edgeStyle=orthogonalEdgeStyle;rounded=0;orthogonalLoop=1;jettySize=auto;html=1;exitX=0.5;exitY=1;exitDx=0;exitDy=0;" edge="1" parent="hNnRLSEYX066FxZhfKKF-14" source="hNnRLSEYX066FxZhfKKF-15">
          <mxGeometry relative="1" as="geometry">
            <mxPoint x="103" y="150" as="targetPoint" />
          </mxGeometry>
        </mxCell>
        <mxCell id="hNnRLSEYX066FxZhfKKF-15" value="&lt;div style=&quot;font-style: normal; font-variant-caps: normal; font-weight: normal; letter-spacing: normal; text-align: start; text-indent: 0px; text-transform: none; word-spacing: 0px; -webkit-text-stroke-width: 0px; text-decoration: none; color: rgb(212, 212, 212); background-color: rgb(30, 30, 30); font-family: Menlo, Monaco, &amp;quot;Courier New&amp;quot;, monospace; font-size: 12px; line-height: 18px;&quot;&gt;&lt;div&gt;&lt;span style=&quot;color: rgb(156, 220, 254);&quot;&gt;A&lt;/span&gt;&lt;span style=&quot;color: rgb(212, 212, 212);&quot;&gt;[&lt;/span&gt;&lt;span style=&quot;color: rgb(156, 220, 254);&quot;&gt;i&lt;/span&gt;&lt;span style=&quot;color: rgb(212, 212, 212);&quot;&gt;] &amp;lt; &lt;/span&gt;&lt;span style=&quot;color: rgb(156, 220, 254);&quot;&gt;A&lt;/span&gt;&lt;span style=&quot;color: rgb(212, 212, 212);&quot;&gt;[&lt;/span&gt;&lt;span style=&quot;color: rgb(156, 220, 254);&quot;&gt;j&lt;/span&gt;&lt;span style=&quot;color: rgb(212, 212, 212);&quot;&gt;]:&lt;/span&gt;&lt;/div&gt;&lt;/div&gt;" style="rhombus;whiteSpace=wrap;html=1;" vertex="1" parent="hNnRLSEYX066FxZhfKKF-14">
          <mxGeometry x="30" y="40" width="145" height="80" as="geometry" />
        </mxCell>
        <mxCell id="hNnRLSEYX066FxZhfKKF-18" value="&lt;div style=&quot;text-align: start; text-indent: 0px; background-color: rgb(30, 30, 30); line-height: 18px;&quot;&gt;&lt;div&gt;&lt;span style=&quot;color: rgb(156, 220, 254); font-family: Menlo, Monaco, &amp;quot;Courier New&amp;quot;, monospace; font-size: 12px; font-style: normal; font-variant-caps: normal; font-weight: normal; letter-spacing: normal; text-transform: none; word-spacing: 0px; text-decoration: none; -webkit-text-stroke-width: 0px;&quot;&gt;tmp&lt;/span&gt;&lt;span style=&quot;color: rgb(212, 212, 212); font-family: Menlo, Monaco, &amp;quot;Courier New&amp;quot;, monospace; font-size: 12px; font-style: normal; font-variant-caps: normal; font-weight: normal; letter-spacing: normal; text-transform: none; word-spacing: 0px; text-decoration: none; -webkit-text-stroke-width: 0px;&quot;&gt;.&lt;/span&gt;&lt;span style=&quot;color: rgb(220, 220, 170); font-family: Menlo, Monaco, &amp;quot;Courier New&amp;quot;, monospace; font-size: 12px; font-style: normal; font-variant-caps: normal; font-weight: normal; letter-spacing: normal; text-transform: none; word-spacing: 0px; text-decoration: none; -webkit-text-stroke-width: 0px;&quot;&gt;append&lt;/span&gt;&lt;span style=&quot;color: rgb(212, 212, 212); font-family: Menlo, Monaco, &amp;quot;Courier New&amp;quot;, monospace; font-size: 12px; font-style: normal; font-variant-caps: normal; font-weight: normal; letter-spacing: normal; text-transform: none; word-spacing: 0px; text-decoration: none; -webkit-text-stroke-width: 0px;&quot;&gt;(&lt;/span&gt;&lt;span style=&quot;color: rgb(156, 220, 254); font-family: Menlo, Monaco, &amp;quot;Courier New&amp;quot;, monospace; font-size: 12px; font-style: normal; font-variant-caps: normal; font-weight: normal; letter-spacing: normal; text-transform: none; word-spacing: 0px; text-decoration: none; -webkit-text-stroke-width: 0px;&quot;&gt;A&lt;/span&gt;&lt;span style=&quot;color: rgb(212, 212, 212); font-family: Menlo, Monaco, &amp;quot;Courier New&amp;quot;, monospace; font-size: 12px; font-style: normal; font-variant-caps: normal; font-weight: normal; letter-spacing: normal; text-transform: none; word-spacing: 0px; text-decoration: none; -webkit-text-stroke-width: 0px;&quot;&gt;[&lt;/span&gt;&lt;font face=&quot;Menlo, Monaco, Courier New, monospace&quot; color=&quot;#9cdcfe&quot;&gt;&lt;span style=&quot;caret-color: rgb(156, 220, 254);&quot;&gt;I&lt;/span&gt;&lt;/font&gt;&lt;font face=&quot;Menlo, Monaco, Courier New, monospace&quot; color=&quot;#d4d4d4&quot;&gt;])&lt;/font&gt;&lt;/div&gt;&lt;div style=&quot;color: rgb(212, 212, 212); font-family: Menlo, Monaco, &amp;quot;Courier New&amp;quot;, monospace; font-size: 12px; font-style: normal; font-variant-caps: normal; font-weight: normal; letter-spacing: normal; text-transform: none; word-spacing: 0px; text-decoration: none; -webkit-text-stroke-width: 0px;&quot;&gt;&lt;div style=&quot;line-height: 18px;&quot;&gt;i += &lt;span style=&quot;color: rgb(181, 206, 168);&quot;&gt;1&lt;/span&gt;&lt;/div&gt;&lt;/div&gt;&lt;/div&gt;" style="rounded=0;whiteSpace=wrap;html=1;" vertex="1" parent="hNnRLSEYX066FxZhfKKF-14">
          <mxGeometry x="210" y="50" width="120" height="60" as="geometry" />
        </mxCell>
        <mxCell id="hNnRLSEYX066FxZhfKKF-22" value="" style="endArrow=classic;html=1;rounded=0;entryX=0.5;entryY=0;entryDx=0;entryDy=0;exitX=0.5;exitY=0;exitDx=0;exitDy=0;" edge="1" parent="hNnRLSEYX066FxZhfKKF-14" source="hNnRLSEYX066FxZhfKKF-14" target="hNnRLSEYX066FxZhfKKF-15">
          <mxGeometry width="50" height="50" relative="1" as="geometry">
            <mxPoint x="-10" y="90" as="sourcePoint" />
            <mxPoint x="40" y="40" as="targetPoint" />
          </mxGeometry>
        </mxCell>
        <mxCell id="hNnRLSEYX066FxZhfKKF-26" value="&lt;div style=&quot;font-style: normal; font-variant-caps: normal; font-weight: normal; letter-spacing: normal; text-align: start; text-indent: 0px; text-transform: none; word-spacing: 0px; -webkit-text-stroke-width: 0px; text-decoration: none; color: rgb(212, 212, 212); background-color: rgb(30, 30, 30); font-family: Menlo, Monaco, &amp;quot;Courier New&amp;quot;, monospace; font-size: 12px; line-height: 18px;&quot;&gt;&lt;div&gt;&lt;span style=&quot;color: rgb(156, 220, 254);&quot;&gt;tmp&lt;/span&gt;&lt;span style=&quot;color: rgb(212, 212, 212);&quot;&gt;.&lt;/span&gt;&lt;span style=&quot;color: rgb(220, 220, 170);&quot;&gt;append&lt;/span&gt;&lt;span style=&quot;color: rgb(212, 212, 212);&quot;&gt;(&lt;/span&gt;&lt;span style=&quot;color: rgb(156, 220, 254);&quot;&gt;A&lt;/span&gt;&lt;span style=&quot;color: rgb(212, 212, 212);&quot;&gt;[&lt;/span&gt;&lt;span style=&quot;color: rgb(156, 220, 254);&quot;&gt;j&lt;/span&gt;&lt;span style=&quot;color: rgb(212, 212, 212);&quot;&gt;])&lt;/span&gt;&lt;/div&gt;&lt;div&gt;&lt;div style=&quot;line-height: 18px;&quot;&gt;j += &lt;span style=&quot;color: rgb(181, 206, 168);&quot;&gt;1&lt;/span&gt;&lt;/div&gt;&lt;/div&gt;&lt;/div&gt;" style="rounded=0;whiteSpace=wrap;html=1;" vertex="1" parent="hNnRLSEYX066FxZhfKKF-14">
          <mxGeometry x="42.5" y="160" width="120" height="60" as="geometry" />
        </mxCell>
        <mxCell id="hNnRLSEYX066FxZhfKKF-27" value="Y" style="text;html=1;strokeColor=none;fillColor=none;align=center;verticalAlign=middle;whiteSpace=wrap;rounded=0;" vertex="1" parent="hNnRLSEYX066FxZhfKKF-14">
          <mxGeometry x="150" y="50" width="60" height="30" as="geometry" />
        </mxCell>
        <mxCell id="hNnRLSEYX066FxZhfKKF-28" value="else" style="text;html=1;strokeColor=none;fillColor=none;align=center;verticalAlign=middle;whiteSpace=wrap;rounded=0;" vertex="1" parent="hNnRLSEYX066FxZhfKKF-14">
          <mxGeometry x="100" y="120" width="60" height="30" as="geometry" />
        </mxCell>
        <mxCell id="hNnRLSEYX066FxZhfKKF-31" value="&lt;div style=&quot;font-weight: normal; text-align: start; color: rgb(212, 212, 212); background-color: rgb(30, 30, 30); font-family: Menlo, Monaco, &amp;quot;Courier New&amp;quot;, monospace; line-height: 18px;&quot;&gt;i &amp;lt;= &lt;span style=&quot;color: rgb(156, 220, 254);&quot;&gt;q&lt;/span&gt;:&lt;/div&gt;" style="swimlane;whiteSpace=wrap;html=1;" vertex="1" parent="1">
          <mxGeometry x="475" y="600" width="200" height="200" as="geometry" />
        </mxCell>
        <mxCell id="hNnRLSEYX066FxZhfKKF-34" style="edgeStyle=orthogonalEdgeStyle;rounded=0;orthogonalLoop=1;jettySize=auto;html=1;exitX=0.5;exitY=1;exitDx=0;exitDy=0;" edge="1" parent="hNnRLSEYX066FxZhfKKF-31" source="hNnRLSEYX066FxZhfKKF-32">
          <mxGeometry relative="1" as="geometry">
            <mxPoint x="100" y="230" as="targetPoint" />
          </mxGeometry>
        </mxCell>
        <mxCell id="hNnRLSEYX066FxZhfKKF-32" value="&lt;div style=&quot;text-align: start; text-indent: 0px; background-color: rgb(30, 30, 30); line-height: 18px;&quot;&gt;&lt;div&gt;&lt;span style=&quot;color: rgb(156, 220, 254); font-family: Menlo, Monaco, &amp;quot;Courier New&amp;quot;, monospace; font-size: 12px; font-style: normal; font-variant-caps: normal; font-weight: normal; letter-spacing: normal; text-transform: none; word-spacing: 0px; text-decoration: none; -webkit-text-stroke-width: 0px;&quot;&gt;tmp&lt;/span&gt;&lt;span style=&quot;color: rgb(212, 212, 212); font-family: Menlo, Monaco, &amp;quot;Courier New&amp;quot;, monospace; font-size: 12px; font-style: normal; font-variant-caps: normal; font-weight: normal; letter-spacing: normal; text-transform: none; word-spacing: 0px; text-decoration: none; -webkit-text-stroke-width: 0px;&quot;&gt;.&lt;/span&gt;&lt;span style=&quot;color: rgb(220, 220, 170); font-family: Menlo, Monaco, &amp;quot;Courier New&amp;quot;, monospace; font-size: 12px; font-style: normal; font-variant-caps: normal; font-weight: normal; letter-spacing: normal; text-transform: none; word-spacing: 0px; text-decoration: none; -webkit-text-stroke-width: 0px;&quot;&gt;append&lt;/span&gt;&lt;span style=&quot;color: rgb(212, 212, 212); font-family: Menlo, Monaco, &amp;quot;Courier New&amp;quot;, monospace; font-size: 12px; font-style: normal; font-variant-caps: normal; font-weight: normal; letter-spacing: normal; text-transform: none; word-spacing: 0px; text-decoration: none; -webkit-text-stroke-width: 0px;&quot;&gt;(&lt;/span&gt;&lt;span style=&quot;color: rgb(156, 220, 254); font-family: Menlo, Monaco, &amp;quot;Courier New&amp;quot;, monospace; font-size: 12px; font-style: normal; font-variant-caps: normal; font-weight: normal; letter-spacing: normal; text-transform: none; word-spacing: 0px; text-decoration: none; -webkit-text-stroke-width: 0px;&quot;&gt;A&lt;/span&gt;&lt;span style=&quot;color: rgb(212, 212, 212); font-family: Menlo, Monaco, &amp;quot;Courier New&amp;quot;, monospace; font-size: 12px; font-style: normal; font-variant-caps: normal; font-weight: normal; letter-spacing: normal; text-transform: none; word-spacing: 0px; text-decoration: none; -webkit-text-stroke-width: 0px;&quot;&gt;[&lt;/span&gt;&lt;font face=&quot;Menlo, Monaco, Courier New, monospace&quot; color=&quot;#9cdcfe&quot;&gt;&lt;span style=&quot;caret-color: rgb(156, 220, 254);&quot;&gt;I&lt;/span&gt;&lt;/font&gt;&lt;font face=&quot;Menlo, Monaco, Courier New, monospace&quot; color=&quot;#d4d4d4&quot;&gt;])&lt;/font&gt;&lt;/div&gt;&lt;div style=&quot;color: rgb(212, 212, 212); font-family: Menlo, Monaco, &amp;quot;Courier New&amp;quot;, monospace; font-size: 12px; font-style: normal; font-variant-caps: normal; font-weight: normal; letter-spacing: normal; text-transform: none; word-spacing: 0px; text-decoration: none; -webkit-text-stroke-width: 0px;&quot;&gt;&lt;div style=&quot;line-height: 18px;&quot;&gt;i += &lt;span style=&quot;color: rgb(181, 206, 168);&quot;&gt;1&lt;/span&gt;&lt;/div&gt;&lt;/div&gt;&lt;/div&gt;" style="rounded=0;whiteSpace=wrap;html=1;" vertex="1" parent="hNnRLSEYX066FxZhfKKF-31">
          <mxGeometry x="40" y="50" width="120" height="60" as="geometry" />
        </mxCell>
        <mxCell id="hNnRLSEYX066FxZhfKKF-33" value="" style="endArrow=classic;html=1;rounded=0;entryX=0.5;entryY=0;entryDx=0;entryDy=0;" edge="1" parent="hNnRLSEYX066FxZhfKKF-31" source="hNnRLSEYX066FxZhfKKF-31" target="hNnRLSEYX066FxZhfKKF-32">
          <mxGeometry width="50" height="50" relative="1" as="geometry">
            <mxPoint x="-85" y="40" as="sourcePoint" />
            <mxPoint x="-35" y="-10" as="targetPoint" />
          </mxGeometry>
        </mxCell>
        <mxCell id="hNnRLSEYX066FxZhfKKF-35" value="&lt;div style=&quot;font-weight: normal; text-align: start; color: rgb(212, 212, 212); background-color: rgb(30, 30, 30); font-family: Menlo, Monaco, &amp;quot;Courier New&amp;quot;, monospace; line-height: 18px;&quot;&gt;j &amp;lt;= &lt;span style=&quot;color: rgb(156, 220, 254);&quot;&gt;r&lt;/span&gt;:&lt;/div&gt;" style="swimlane;whiteSpace=wrap;html=1;" vertex="1" parent="1">
          <mxGeometry x="475" y="840" width="200" height="200" as="geometry" />
        </mxCell>
        <mxCell id="hNnRLSEYX066FxZhfKKF-38" style="edgeStyle=orthogonalEdgeStyle;rounded=0;orthogonalLoop=1;jettySize=auto;html=1;exitX=0.5;exitY=1;exitDx=0;exitDy=0;" edge="1" parent="hNnRLSEYX066FxZhfKKF-35" source="hNnRLSEYX066FxZhfKKF-36">
          <mxGeometry relative="1" as="geometry">
            <mxPoint x="100" y="240" as="targetPoint" />
          </mxGeometry>
        </mxCell>
        <mxCell id="hNnRLSEYX066FxZhfKKF-36" value="&lt;div style=&quot;font-style: normal; font-variant-caps: normal; font-weight: normal; letter-spacing: normal; text-align: start; text-indent: 0px; text-transform: none; word-spacing: 0px; -webkit-text-stroke-width: 0px; text-decoration: none; color: rgb(212, 212, 212); background-color: rgb(30, 30, 30); font-family: Menlo, Monaco, &amp;quot;Courier New&amp;quot;, monospace; font-size: 12px; line-height: 18px;&quot;&gt;&lt;div&gt;&lt;span style=&quot;color: rgb(156, 220, 254);&quot;&gt;tmp&lt;/span&gt;&lt;span style=&quot;color: rgb(212, 212, 212);&quot;&gt;.&lt;/span&gt;&lt;span style=&quot;color: rgb(220, 220, 170);&quot;&gt;append&lt;/span&gt;&lt;span style=&quot;color: rgb(212, 212, 212);&quot;&gt;(&lt;/span&gt;&lt;span style=&quot;color: rgb(156, 220, 254);&quot;&gt;A&lt;/span&gt;&lt;span style=&quot;color: rgb(212, 212, 212);&quot;&gt;[&lt;/span&gt;&lt;span style=&quot;color: rgb(156, 220, 254);&quot;&gt;j&lt;/span&gt;&lt;span style=&quot;color: rgb(212, 212, 212);&quot;&gt;])&lt;/span&gt;&lt;/div&gt;&lt;div&gt;&lt;div style=&quot;line-height: 18px;&quot;&gt;j += &lt;span style=&quot;color: rgb(181, 206, 168);&quot;&gt;1&lt;/span&gt;&lt;/div&gt;&lt;/div&gt;&lt;/div&gt;" style="rounded=0;whiteSpace=wrap;html=1;" vertex="1" parent="hNnRLSEYX066FxZhfKKF-35">
          <mxGeometry x="40" y="50" width="120" height="60" as="geometry" />
        </mxCell>
        <mxCell id="hNnRLSEYX066FxZhfKKF-37" value="" style="endArrow=classic;html=1;rounded=0;entryX=0.5;entryY=0;entryDx=0;entryDy=0;exitX=0.5;exitY=0;exitDx=0;exitDy=0;" edge="1" parent="hNnRLSEYX066FxZhfKKF-35" source="hNnRLSEYX066FxZhfKKF-35" target="hNnRLSEYX066FxZhfKKF-36">
          <mxGeometry width="50" height="50" relative="1" as="geometry">
            <mxPoint x="-85" y="120" as="sourcePoint" />
            <mxPoint x="-35" y="70" as="targetPoint" />
          </mxGeometry>
        </mxCell>
        <mxCell id="hNnRLSEYX066FxZhfKKF-39" value="&lt;div style=&quot;font-weight: normal; text-align: start; color: rgb(212, 212, 212); background-color: rgb(30, 30, 30); font-family: Menlo, Monaco, &amp;quot;Courier New&amp;quot;, monospace; line-height: 18px;&quot;&gt;i &lt;span style=&quot;color: rgb(197, 134, 192);&quot;&gt;in&lt;/span&gt; &lt;span style=&quot;color: rgb(78, 201, 176);&quot;&gt;range&lt;/span&gt;(&lt;span style=&quot;color: rgb(156, 220, 254);&quot;&gt;p&lt;/span&gt;, &lt;span style=&quot;color: rgb(156, 220, 254);&quot;&gt;r&lt;/span&gt;+&lt;span style=&quot;color: rgb(181, 206, 168);&quot;&gt;1&lt;/span&gt;):&lt;/div&gt;" style="swimlane;whiteSpace=wrap;html=1;" vertex="1" parent="1">
          <mxGeometry x="475" y="1090" width="200" height="200" as="geometry" />
        </mxCell>
        <mxCell id="hNnRLSEYX066FxZhfKKF-40" value="&lt;div style=&quot;text-align: start; color: rgb(212, 212, 212); background-color: rgb(30, 30, 30); font-family: Menlo, Monaco, &amp;quot;Courier New&amp;quot;, monospace; line-height: 18px;&quot;&gt; A[&lt;span style=&quot;color: rgb(156, 220, 254);&quot;&gt;i&lt;/span&gt;] = &lt;span style=&quot;color: rgb(156, 220, 254);&quot;&gt;tmp&lt;/span&gt;[&lt;span style=&quot;color: rgb(156, 220, 254);&quot;&gt;i&lt;/span&gt;-&lt;span style=&quot;color: rgb(156, 220, 254);&quot;&gt;p&lt;/span&gt;]&lt;/div&gt;" style="rounded=0;whiteSpace=wrap;html=1;" vertex="1" parent="hNnRLSEYX066FxZhfKKF-39">
          <mxGeometry x="40" y="50" width="120" height="60" as="geometry" />
        </mxCell>
        <mxCell id="hNnRLSEYX066FxZhfKKF-41" value="" style="endArrow=classic;html=1;rounded=0;entryX=0.5;entryY=0;entryDx=0;entryDy=0;" edge="1" parent="hNnRLSEYX066FxZhfKKF-39" source="hNnRLSEYX066FxZhfKKF-39" target="hNnRLSEYX066FxZhfKKF-40">
          <mxGeometry width="50" height="50" relative="1" as="geometry">
            <mxPoint x="-85" y="60" as="sourcePoint" />
            <mxPoint x="-35" y="10" as="targetPoint" />
          </mxGeometry>
        </mxCell>
        <mxCell id="hNnRLSEYX066FxZhfKKF-42" value="" style="strokeWidth=2;html=1;shape=mxgraph.flowchart.annotation_1;align=left;pointerEvents=1;" vertex="1" parent="1">
          <mxGeometry x="350" y="140" width="50" height="1180" as="geometry" />
        </mxCell>
      </root>
    </mxGraphModel>
  </diagram>
</mxfile>
